<svg width="12" height="16" viewBox="0 0 12 16" fill="none" xmlns="http://www.w3.org/2000/svg">
<path fill-rule="evenodd" clip-rule="evenodd" d="M9 3.85714C9 4.67992 8.63872 5.76733 8.01307 6.64846C7.37486 7.54727 6.63757 8 6 8C5.36243 8 4.62514 7.54727 3.98693 6.64846C3.36128 5.76733 3 4.67992 3 3.85714C3 2.31315 4.30856 1 6 1C7.69144 1 9 2.31315 9 3.85714ZM10 3.85714C10 5.98738 8.20914 9 6 9C3.79086 9 2 5.98738 2 3.85714C2 1.7269 3.79086 0 6 0C8.20914 0 10 1.7269 10 3.85714ZM6 10C4.99425 10 4.12139 10.0311 3.38164 10.1379C2.64288 10.2447 2.00141 10.4315 1.47962 10.7669C0.384099 11.4712 0 12.6989 0 14.5V14.7676L0.22265 14.916L0.5 14.5C0.22265 14.916 0.222906 14.9162 0.223167 14.9164L0.22372 14.9167L0.22493 14.9175L0.22777 14.9194L0.235145 14.9242L0.256745 14.9377C0.274221 14.9484 0.29788 14.9624 0.327964 14.9792C0.388141 15.0129 0.473959 15.0579 0.587346 15.1102C0.814195 15.2149 1.15085 15.3488 1.61264 15.4808C2.53648 15.7447 3.95809 16 6 16C8.04191 16 9.46352 15.7447 10.3874 15.4808C10.8492 15.3488 11.1858 15.2149 11.4127 15.1102C11.526 15.0579 11.6119 15.0129 11.672 14.9792C11.7021 14.9624 11.7258 14.9484 11.7433 14.9377L11.7649 14.9242L11.7722 14.9194L11.7751 14.9175L11.7763 14.9167L11.7768 14.9164C11.7771 14.9162 11.7774 14.916 11.5 14.5L11.7774 14.916L12 14.7676V14.5C12 12.6989 11.6159 11.4712 10.5204 10.7669C9.99859 10.4315 9.35712 10.2447 8.61836 10.1379C7.87861 10.0311 7.00575 10 6 10ZM1.0064 14.2023L1.00402 14.2012C1.04542 12.7088 1.40557 12.0033 2.02038 11.6081C2.37359 11.381 2.85712 11.2241 3.52461 11.1277C4.19111 11.0314 5.00575 11 6 11C6.99425 11 7.80889 11.0314 8.4754 11.1277C9.14288 11.2241 9.62641 11.381 9.97962 11.6081C10.5944 12.0033 10.9546 12.7088 10.996 14.2012L10.9936 14.2023C10.8142 14.2851 10.5258 14.4012 10.1126 14.5192C9.28648 14.7553 7.95809 15 6 15C4.04191 15 2.71352 14.7553 1.88736 14.5192C1.47415 14.4012 1.18581 14.2851 1.0064 14.2023Z" fill="white"/>
</svg>
