<svg width="106" height="81" viewBox="0 0 106 81" fill="none" xmlns="http://www.w3.org/2000/svg">
<path d="M103.792 58.8287C103.833 58.8083 103.872 58.7852 103.912 58.7626C103.946 58.7434 103.981 58.7259 104.014 58.7052C104.052 58.6812 104.089 58.6545 104.126 58.6288C104.159 58.6061 104.192 58.5845 104.224 58.5598C104.258 58.5334 104.29 58.5047 104.323 58.4769C104.355 58.4496 104.388 58.4236 104.419 58.3945C104.449 58.3658 104.477 58.335 104.507 58.3048C104.537 58.2738 104.568 58.244 104.596 58.2112C104.627 58.1764 104.654 58.1397 104.683 58.1033C104.707 58.0727 104.732 58.0433 104.755 58.0113C104.797 57.9522 104.836 57.8907 104.873 57.8283C104.88 57.8172 104.888 57.8072 104.894 57.7958C104.901 57.7839 104.906 57.7713 104.913 57.7592C104.948 57.6966 104.981 57.6331 105.011 57.5676C105.028 57.5292 105.042 57.4903 105.057 57.4514C105.073 57.4112 105.091 57.3717 105.104 57.3306C105.119 57.2868 105.131 57.2424 105.143 57.1981C105.154 57.1608 105.166 57.1238 105.175 57.0859C105.185 57.0418 105.192 56.9972 105.2 56.9531C105.207 56.9138 105.215 56.8746 105.221 56.8347C105.226 56.7918 105.229 56.7492 105.232 56.7062C105.236 56.6643 105.24 56.6225 105.242 56.5805C105.243 56.5377 105.241 56.4952 105.24 56.4522C105.239 56.4101 105.24 56.3682 105.237 56.3262C105.234 56.2764 105.227 56.2273 105.221 56.1779C105.217 56.1431 105.214 56.1083 105.208 56.0735C105.194 55.9878 105.176 55.9032 105.154 55.8194L90.7572 2.08994C90.3851 0.701352 88.9585 -0.12231 87.5699 0.24976L8.38744 21.4666C8.36532 21.4726 8.34459 21.481 8.32264 21.4876C8.27507 21.5018 8.22802 21.5165 8.1815 21.5333C8.14444 21.5465 8.10807 21.5609 8.07188 21.576C8.03041 21.5928 7.98955 21.6106 7.94905 21.6297C7.91105 21.6475 7.87375 21.6664 7.83696 21.686C7.79959 21.7061 7.7624 21.7268 7.72591 21.7488C7.68965 21.7704 7.65434 21.7928 7.61955 21.8157C7.58393 21.8396 7.54848 21.8642 7.51407 21.89C7.4814 21.9142 7.44949 21.9385 7.41827 21.9641C7.38348 21.9925 7.34939 22.0221 7.31581 22.0523C7.28721 22.0783 7.25937 22.1044 7.23213 22.1315C7.19918 22.164 7.16726 22.1977 7.13585 22.232C7.11007 22.2605 7.08513 22.2894 7.06063 22.3186C7.03183 22.3533 7.00365 22.3888 6.97649 22.4256C6.95172 22.4592 6.9278 22.4932 6.9044 22.5279C6.88133 22.5624 6.85859 22.5969 6.83697 22.6329C6.81233 22.6736 6.78938 22.7153 6.76685 22.7573C6.75559 22.7783 6.74278 22.7975 6.73228 22.8186C6.72592 22.8311 6.72185 22.8441 6.71583 22.8564C6.69411 22.9014 6.67486 22.9475 6.65569 22.994C6.64178 23.0279 6.62721 23.062 6.61482 23.0962C6.59873 23.1407 6.58493 23.1857 6.57122 23.2311C6.55997 23.2682 6.54797 23.3052 6.53858 23.3426C6.52753 23.3857 6.51942 23.4292 6.51064 23.4729C6.50265 23.5128 6.49398 23.5528 6.48783 23.5929C6.48156 23.6352 6.47765 23.6782 6.47357 23.7206C6.4693 23.7624 6.46462 23.8039 6.46245 23.8454C6.46038 23.8873 6.46083 23.9292 6.46061 23.9713C6.46066 24.0144 6.45996 24.0573 6.46178 24.1003C6.46354 24.1404 6.46817 24.1805 6.47171 24.2205C6.47601 24.266 6.48031 24.3116 6.48662 24.3566C6.49197 24.3939 6.49983 24.4313 6.50703 24.4689C6.51625 24.5167 6.52581 24.5645 6.5378 24.6119C6.54115 24.6257 6.54306 24.6396 6.54675 24.6533L10.7005 40.1553C11.0726 41.5439 12.4992 42.3676 13.8878 41.9955C15.2764 41.6235 16.1 40.1968 15.728 38.8082L13.0701 28.8891L40.7211 42.6877C40.6265 42.8011 40.5385 42.922 40.4619 43.0543L24.3451 70.9693L19.9187 54.4498C19.5467 53.0612 18.12 52.2375 16.7314 52.6096C15.3429 52.9817 14.5192 54.4083 14.8913 55.7969L15.7143 58.8683L2.72665 62.3483C1.33807 62.7204 0.514406 64.147 0.886477 65.5356C1.25855 66.9242 2.68517 67.7479 4.07376 67.3758L17.0614 63.8958L20.9438 78.3852C21.3159 79.7738 22.7425 80.5975 24.1311 80.2254L103.314 59.0085C103.396 58.9863 103.478 58.9598 103.558 58.9297C103.596 58.9157 103.631 58.8983 103.667 58.8828C103.709 58.8651 103.751 58.8486 103.792 58.8287ZM98.5006 51.0998L70.5852 34.9831C70.5673 34.9728 70.5491 34.9651 70.5311 34.9556L83.3199 16.4783C84.1376 15.2964 83.8427 13.6756 82.6608 12.8575C81.4797 12.0399 79.8587 12.3341 79.04 13.5166L57.1878 45.089L16.3655 24.7177L86.4031 5.95119L98.5006 51.0998ZM44.9701 45.6573C45.1014 45.43 45.1933 45.1913 45.25 44.9483L56.882 50.7529C57.47 51.0462 58.1218 51.0979 58.7177 50.9382C59.2962 50.7832 59.8211 50.4295 60.1843 49.9054L67.5875 39.2091C67.7088 39.3131 67.8396 39.4084 67.9828 39.4911L95.8978 55.6079L28.8533 73.5724L44.9701 45.6573Z" fill="#E5E5E5"/>
</svg>
