<svg width="14" height="14" viewBox="0 0 14 14" fill="none" xmlns="http://www.w3.org/2000/svg">
<path fill-rule="evenodd" clip-rule="evenodd" d="M13 7C13 10.3137 10.3137 13 7 13C3.68629 13 1 10.3137 1 7C1 3.68629 3.68629 1 7 1C10.3137 1 13 3.68629 13 7ZM14 7C14 10.866 10.866 14 7 14C3.13401 14 0 10.866 0 7C0 3.13401 3.13401 0 7 0C10.866 0 14 3.13401 14 7ZM6.26342 6.22002V7.81002H7.30342V6.89002C7.53008 6.85002 7.75008 6.78002 7.96342 6.68002C8.17675 6.57336 8.36675 6.43669 8.53342 6.27002C8.70675 6.10336 8.84342 5.90336 8.94342 5.67002C9.05009 5.43002 9.10342 5.16002 9.10342 4.86002C9.10342 4.56669 9.05342 4.30002 8.95342 4.06002C8.85342 3.81336 8.71008 3.60669 8.52342 3.44002C8.33675 3.26669 8.11008 3.13336 7.84342 3.04002C7.57675 2.94669 7.28008 2.90002 6.95342 2.90002C6.63342 2.90002 6.35008 2.94669 6.10342 3.04002C5.85675 3.12669 5.64342 3.24669 5.46342 3.40002C5.28342 3.54669 5.13342 3.71669 5.01342 3.91002C4.90008 4.10336 4.81342 4.30336 4.75342 4.51002L5.70342 4.89002C5.77675 4.59002 5.91342 4.34336 6.11342 4.15002C6.31342 3.95669 6.58008 3.86002 6.91342 3.86002C7.22675 3.86002 7.47675 3.94669 7.66342 4.12002C7.85009 4.28669 7.94342 4.52336 7.94342 4.83002V4.97002C7.94342 5.37002 7.79675 5.67336 7.50342 5.88002C7.21675 6.08002 6.80342 6.19336 6.26342 6.22002ZM6.23342 9.94002C6.35342 10.06 6.54008 10.12 6.79342 10.12C7.04675 10.12 7.23009 10.06 7.34342 9.94002C7.46342 9.81336 7.52342 9.65336 7.52342 9.46002V9.29002C7.52342 9.09669 7.46342 8.94002 7.34342 8.82002C7.23009 8.69336 7.04675 8.63002 6.79342 8.63002C6.54008 8.63002 6.35342 8.69336 6.23342 8.82002C6.12008 8.94002 6.06342 9.09669 6.06342 9.29002V9.46002C6.06342 9.65336 6.12008 9.81336 6.23342 9.94002Z" fill="#C4C4C4"/>
</svg>
