<svg width="88" height="38" viewBox="0 0 88 38" fill="none" xmlns="http://www.w3.org/2000/svg">
<path fill-rule="evenodd" clip-rule="evenodd" d="M8.43632 27.7031C4.6545 27.7031 2.93329 28.7573 2.2545 30.9638L0.0969238 37.9754H73.6C77.3818 37.9754 79.103 36.9212 79.7818 34.7147L81.9393 27.7031H8.43632ZM17.2848 17.9212H13.6484C7.97571 17.9212 12.0969 5.73667 16.8727 5.73667H22.6181C23.5393 5.73667 25.1636 5.90828 25.9636 3.60377L27.2 0.0244141H19.3212C15.0545 0.0244141 11.7333 1.54441 9.33329 4.09409C5.18783 8.45796 3.78177 15.2734 4.77571 18.5341C5.72117 21.5496 8.29086 23.5354 12.3151 23.5844L15.4424 23.6089H19.2969L20.2424 20.7405C20.9454 18.7057 19.3697 17.9212 17.2848 17.9212ZM61.5515 12.8709L62.7393 8.9728H50.0606C47.9515 8.9728 47.006 9.56119 46.6424 10.787L45.4545 14.6851H58.1333C60.2424 14.6851 61.1878 14.0967 61.5515 12.8709ZM43.5636 19.7354L42.3757 23.6334H55.0545C57.1394 23.6334 58.109 23.0451 58.4727 21.8193L59.6606 17.9212H46.9818C44.8969 17.9212 43.9515 18.5096 43.5636 19.7354ZM64.509 3.947L65.6969 0.0489298H53.0181C50.909 0.0489298 49.9636 0.637317 49.6 1.86312L48.4121 5.76119H61.0909C63.1757 5.76119 64.1212 5.1728 64.509 3.947ZM45.3575 4.73151C44.8242 1.10312 42.909 0.0489298 38.2545 0.0489298H29.7697L24.8242 14.6851H27.9515C29.8181 14.6851 30.7636 14.7096 31.7575 12.0128L33.8181 5.73667H36.9697C39.6606 5.73667 39.0545 9.14441 37.6969 12.4541C36.4848 15.3715 34.3757 17.9457 31.8303 17.9457H26.5697C24.4606 17.9457 23.4909 18.5341 23.103 19.7599L21.7939 23.658H25.6484L29.4303 23.6334C32.7757 23.6089 35.5151 23.3638 38.7151 20.4463C42.109 17.3328 46.0363 9.34054 45.3575 4.73151ZM87.9757 0.0244141H80.6303L73.7212 7.4528C72.9212 8.31086 72.0969 9.16893 71.2969 10.1741H71.2242L74.6666 0.0244141H68.6787L60.606 23.6334H66.5939L69.1636 16.2051L71.8303 13.9251L73.9393 20.6425C74.5939 22.7263 75.2727 23.6334 76.7272 23.6334H81.309L76.606 10.4438L87.9757 0.0244141Z" fill="#00B33C"/>
</svg>
